<?xml version="1.0" encoding="UTF-8"?>
<svg id="SVGRoot" width="128px" height="128px" version="1.1" viewBox="0 0 128 128" xmlns="http://www.w3.org/2000/svg" xmlns:xlink="http://www.w3.org/1999/xlink"><defs id="defs9"><linearGradient id="linearGradient985" x1="78.662" x2="44.978" y1=".31229" y2="127.76" gradientUnits="userSpaceOnUse"><stop id="stop979" stop-color="#fff" offset="0"/><stop id="stop981" stop-color="#999" offset="1"/></linearGradient><linearGradient id="linearGradient2135" x1="51.032" x2="81.23" y1="-.16254" y2="129" gradientUnits="userSpaceOnUse"><stop id="stop2749" stop-color="#ddd" stop-opacity=".87451" offset="0"/><stop id="stop2751" stop-color="#777" offset="1"/></linearGradient></defs><g id="layer1"><rect id="rect304" width="128" height="128" rx="30" ry="30" stroke-width=".98462"/><rect id="rect877" x="5" y="5" width="118" height="118" rx="25" ry="25" fill="url(#linearGradient2135)" stroke-width="1.0727"/><rect id="rect304-3" x="7" y="7" width="114" height="114" rx="23" ry="23" fill="#1a1a1a" stroke-width=".87692"/><rect id="rect877-5" x="10" y="10" width="108" height="108" rx="20" ry="20" fill="url(#linearGradient985)" stroke-width=".98268"/><rect id="rect877-5-5" x="12.988" y="7.0215" width="101.99" height="113.93" rx="18.887" ry="21.098" fill="#1a1a1a" stroke-width=".97995"/><path id="path5594" d="m102.08 52.462c-3.9443-12.421-14.32-22.603-26.813-26.312-9.887-2.9354-20.922-1.8558-30.006 3.0293-8.9537 4.8154-15.875 13.253-18.921 22.952-2.4558 7.8204-2.4204 16.407 0.12823 24.198 2.7519 8.4119 8.4325 15.835 15.834 20.688 6.3479 4.1622 13.918 6.4309 21.509 6.4628 7.4115 0.0311 14.816-2.0651 21.126-5.9524 5.6379-3.4731 10.396-8.3613 13.718-14.09 1.7962-3.0974 3.1772-6.4353 4.0943-9.8964l-52.002-30.206-0.13059 39.434 23.781-13.915" fill="none" stroke="#fff" stroke-width="6.4252"/><g id="g3475" fill="#dd1f1f" stroke="#000" stroke-width="2.6457"><circle id="path947" cx="101.42" cy="52.228" r="9.6577"/><circle id="path947-3" cx="101.49" cy="73.267" r="9.6577"/><circle id="path947-3-6" cx="70.636" cy="71.274" r="9.6577"/><circle id="path947-3-6-7" cx="25.012" cy="62.448" r="9.6577"/></g><rect id="rect1826" transform="rotate(-35.349)" x="9.3366" y="55.568" width="13.297" height="9.4976" fill="#1a1a1a" fill-opacity=".97882" stroke-width="0"/><rect id="rect1826-3" transform="matrix(.81564 .57856 .57856 -.81564 0 0)" x="82.523" y="-47.382" width="13.297" height="9.4976" fill="#1a1a1a" fill-opacity=".97882" stroke-width="0"/><rect id="rect656" x="14.15" y="21" width="2" height="2" style="paint-order:fill markers stroke"/></g></svg>
